# xmcd
#
# Track frame offsets:
#	150
#	17376
#	36482
#	55486
#	72892
#	90197
#	109204
#	122547
#	140225
#	154866
#
# Disc length: 2318 seconds
#
# Revision: 0
# Processed by: cddbd v1.5.2PL0 Copyright (c) Steve Scherf et al.
# Submitted via: EasyCDDAExtractor 12.0.1.1
#
DISCID=84090c0a
DTITLE=Per Øystein Sørensen - Våge
DYEAR=2009
DGENRE=Pop
TTITLE0=Gammelt spill
TTITLE1=A til å
TTITLE2=Sant
TTITLE3=Vil du ta meg imot
TTITLE4=Jeg henger med
TTITLE5=Ensomhet
TTITLE6=Si meg at du gjerne vil
TTITLE7=Bildet som forsvant
TTITLE8=Alt det jeg trenger
TTITLE9=Så du hvem jeg var
EXTD=
EXTT0=
EXTT1=
EXTT2=
EXTT3=
EXTT4=
EXTT5=
EXTT6=
EXTT7=
EXTT8=
EXTT9=
PLAYORDER=
